<svg width="16" height="13" viewBox="0 0 16 13" fill="none" xmlns="http://www.w3.org/2000/svg">
<path d="M0 3.22222C0 2.7978 0.537183 2.58957 0.831833 2.89505C2.38039 4.50049 5.7518 7.7037 8 7.7037C10.2482 7.7037 13.6196 4.50049 15.1682 2.89505C15.4628 2.58957 16 2.7978 16 3.22222V11C16 12.1046 15.1046 13 14 13H2C0.895431 13 0 12.1046 0 11V3.22222Z" fill="#193AAD"/>
<path d="M14 1.16421C12.4503 2.90909 9.48561 6 7.92953 6C6.3828 6 3.51604 2.94612 1.99999 1.19581C1.39102 0.49274 2 0 2 0H2.49999H13.5H14C14 0 14.6094 0.478021 14 1.16421Z" fill="#2F51CA"/>
</svg>
